<svg width="147" height="39" viewBox="0 0 147 39" fill="none" xmlns="http://www.w3.org/2000/svg">
<g clip-path="url(#clip0_195_544)">
<mask id="mask0_195_544" style="mask-type:luminance" maskUnits="userSpaceOnUse" x="0" y="0" width="37" height="39">
<path d="M36.6208 0H0V38.1205H36.6208V0Z" fill="white"/>
</mask>
<g mask="url(#mask0_195_544)">
<path d="M17.6881 18.5425H24.9071C25.4079 18.5425 25.6114 18.1821 25.3617 17.741L21.7515 11.3772C21.5018 10.9361 21.0921 10.9361 20.8424 11.3772L17.2335 17.7396C16.9838 18.1807 17.1873 18.5425 17.6881 18.5425ZM23.0861 10.0607H30.3051C30.8059 10.0607 31.0094 10.4211 30.7597 10.8622L27.1495 17.2246C26.8998 17.6657 26.4901 17.6657 26.2404 17.2246L22.6316 10.8622C22.3818 10.4211 22.5866 10.0607 23.0861 10.0607ZM23.0861 28.0625H30.3051C30.8059 28.0625 31.0094 27.7021 30.7597 27.261L27.1495 20.8986C26.8998 20.4575 26.4901 20.4575 26.2404 20.8986L22.6316 27.261C22.3818 27.7021 22.5866 28.0625 23.0861 28.0625ZM17.6881 19.5793H24.9071C25.4079 19.5793 25.6114 19.9398 25.3617 20.3809L21.7515 26.7432C21.5018 27.1843 21.0921 27.1843 20.8424 26.7432L17.2335 20.3809C16.9838 19.9398 17.1873 19.5793 17.6881 19.5793ZM36.422 18.209L32.5819 11.4391C32.3163 10.9698 31.8816 10.9698 31.6147 11.4391L27.7746 18.209C27.509 18.677 27.509 19.4449 27.7746 19.9142L31.6147 26.6841C31.8803 27.1534 32.3163 27.1534 32.5819 26.6841L36.422 19.9142C36.6889 19.4449 36.6889 18.677 36.422 18.209ZM13.6353 17.1977L10.0251 10.8353C9.77539 10.3942 9.36574 10.3942 9.11599 10.8353L5.50585 17.199C5.2561 17.6401 5.46092 18.0005 5.96042 18.0005H13.1794C13.6802 17.9992 13.885 17.6388 13.6353 17.1977ZM3.71796 16.6799L0.109137 10.3175C-0.140613 9.87641 0.0642085 9.516 0.563708 9.516H7.78267C8.28217 9.516 8.48699 9.87641 8.23724 10.3175L4.6271 16.6799C4.37735 17.121 3.96771 17.121 3.71796 16.6799ZM19.0373 7.67897L15.4271 1.31659C15.1774 0.875483 14.7678 0.875483 14.518 1.31659L10.9092 7.67897C10.6594 8.12007 10.8642 8.48048 11.3637 8.48048H18.5827C19.0822 8.48048 19.287 8.12007 19.0373 7.67897ZM14.518 16.6786L10.9079 10.3162C10.6581 9.87507 10.8629 9.51465 11.3624 9.51465H18.5814C19.0809 9.51465 19.2857 9.87507 19.036 10.3162L15.4258 16.6786C15.1761 17.1197 14.7678 17.1197 14.518 16.6786ZM3.98357 0.852621L0.143494 7.62248C-0.122113 8.09183 0.0946014 8.4751 0.627137 8.4751H8.30728C8.83849 8.4751 9.4926 8.09183 9.75821 7.62248L13.5983 0.852621C13.8652 0.383276 13.6472 0 13.116 0H5.43449C4.90328 0 4.24917 0.383276 3.98357 0.852621ZM14.518 21.4433L10.9079 27.8057C10.6581 28.2468 10.8629 28.6072 11.3624 28.6072H18.5814C19.0809 28.6072 19.2857 28.2468 19.036 27.8057L15.4258 21.4433C15.1774 21.0022 14.7678 21.0022 14.518 21.4433ZM19.036 30.4415L15.4258 36.8039C15.1761 37.245 14.7664 37.245 14.5167 36.8039L10.9065 30.4402C10.6581 30.0004 10.8629 29.64 11.3624 29.64H18.5814C19.0809 29.64 19.2857 30.0004 19.036 30.4415ZM3.71664 21.4406L0.106494 27.803C-0.143256 28.2441 0.0615656 28.6045 0.561065 28.6045H7.78003C8.27953 28.6045 8.48435 28.2441 8.2346 27.803L4.62578 21.4406C4.37603 20.9995 3.96771 20.9995 3.71664 21.4406ZM13.6353 20.9242L10.0265 27.2866C9.77671 27.7277 9.36707 27.7277 9.11732 27.2866L5.50717 20.9228C5.25742 20.4817 5.46224 20.1213 5.96174 20.1213H13.1807C13.6815 20.1227 13.885 20.4831 13.6353 20.9242ZM5.43449 38.1205H13.1146C13.6459 38.1205 13.8639 37.7372 13.5983 37.2679L9.75821 30.498C9.4926 30.0287 8.83982 29.6454 8.30728 29.6454H0.627137C0.0946014 29.6454 -0.122113 30.0287 0.143494 30.498L3.98357 37.2679C4.24917 37.7372 4.90196 38.1218 5.43449 38.1205Z" fill="url(#paint0_radial_195_544)"/>
</g>
</g>
<path d="M133.515 14.7083L128.666 27.9338H125.448L120.575 14.7083H124.052L127.057 23.512L130.037 14.7083H133.515Z" fill="#186DAC"/>
<path d="M115.206 27.9338H118.821V14.7083H115.206V27.9338Z" fill="#186DAC"/>
<path d="M118.515 9.85991H115.486C115.304 9.85991 115.156 10.0083 115.156 10.1916V12.5344C115.156 12.7178 115.304 12.8651 115.486 12.8651H118.515C118.698 12.8651 118.847 12.7178 118.847 12.5344V10.1916C118.847 10.0083 118.698 9.85991 118.515 9.85991Z" fill="#186DAC"/>
<path d="M112.201 27.9338H108.672V20.3688H101.688V27.9338H98.1609V9.85985H101.688V17.2469H108.672V9.85985H112.201V27.9338Z" fill="#186DAC"/>
<path d="M143.024 20.0901C142.999 19.5057 142.895 18.9797 142.588 18.4869C142.267 17.9719 141.516 17.2973 140.197 17.2973C139.024 17.2973 138.243 17.8552 137.877 18.3729C137.516 18.8823 137.395 19.5057 137.369 20.0901H143.024ZM145.919 22.3489C145.675 22.3489 137.369 22.3489 137.369 22.3489C137.369 24.0495 138.411 25.2927 140.264 25.2927C141.544 25.2927 142.115 24.8828 142.813 24.0104L145.831 24.3473C145.719 24.9766 145.064 25.9542 144.285 26.6042C143.373 27.3646 142.161 28.0859 140.237 28.0859C137.115 28.0859 134.12 26.3505 134.12 21.3083C134.12 16.7052 136.771 14.5563 140.197 14.5563C143.879 14.5563 146.275 17.3 146.275 21.1916C146.275 21.5661 146.263 21.8473 146.252 22.0391C146.239 22.2473 146.163 22.3489 145.919 22.3489Z" fill="#186DAC"/>
<path d="M92.1568 20.0901C92.1307 19.5057 92.0265 18.9797 91.7193 18.4869C91.3979 17.9719 90.6489 17.2973 89.3287 17.2973C88.1557 17.2973 87.3745 17.8552 87.0084 18.3729C86.6489 18.8823 86.5265 19.5057 86.5021 20.0901H92.1568ZM95.0516 22.3489C94.8079 22.3489 86.5021 22.3489 86.5021 22.3489C86.5021 24.0495 87.5421 25.2927 89.3953 25.2927C90.6751 25.2927 91.2469 24.8828 91.9448 24.0104L94.9615 24.3473C94.8495 24.9766 94.1959 25.9542 93.4172 26.6042C92.5057 27.3646 91.2937 28.0859 89.3703 28.0859C86.2479 28.0859 83.2521 26.3505 83.2521 21.3083C83.2521 16.7052 85.9016 14.5563 89.3287 14.5563C93.0099 14.5563 95.4057 17.3 95.4057 21.1916C95.4057 21.5661 95.3953 21.8473 95.3833 22.0391C95.3719 22.2473 95.2948 22.3489 95.0516 22.3489Z" fill="#186DAC"/>
<path d="M80.7194 27.9339H77.8094L77.4954 26.401C76.9422 27.3474 75.4136 28.0859 74.1954 28.0859C72.8755 28.0859 71.8093 27.6536 71.0729 26.9182C70.0073 25.8516 69.7281 24.6083 69.7281 23.1615V14.7083H73.0281V23.0197C73.0281 24.8214 74.1697 25.4307 75.2104 25.4307C76.2521 25.4307 77.4188 24.8214 77.4188 23.0197V14.7083H80.7194V27.9339Z" fill="#186DAC"/>
<path d="M68.0943 27.9338H66.2979C63.5818 27.9338 62.6724 26.3281 62.6724 24.4505V9.85985H65.9719V24.1527C65.9719 24.9385 66.3022 25.1406 67.1402 25.1406H68.4094L68.0943 27.9338Z" fill="#186DAC"/>
<path d="M55.9427 15.0891C55.9427 13.8459 55.1057 13.0079 53.6073 13.0079H49.5265V17.1703H53.6073C55.1057 17.1703 55.9427 16.3333 55.9427 15.0891ZM56.826 22.5521C56.826 21.3333 56.0645 20.3437 54.4645 20.3437H49.5265V24.7864H54.4645C56.0645 24.7864 56.826 23.7708 56.826 22.5521ZM60.3541 22.7292C60.3541 26.1052 58.0443 27.9338 54.8203 27.9338H45.9979V9.85985H53.8864C57.4151 9.85985 59.4713 11.8396 59.4713 14.9369C59.4713 16.688 58.3068 17.9541 57.5427 18.5079C57.6959 18.5828 57.8667 18.6688 57.8667 18.6688C58.9584 19.1755 60.3541 20.3177 60.3541 22.7292Z" fill="#186DAC"/>
<defs>
<radialGradient id="paint0_radial_195_544" cx="0" cy="0" r="1" gradientTransform="matrix(-10.7028 18.8645 -18.5362 -10.8923 15.2449 19.0134)" gradientUnits="userSpaceOnUse">
<stop stop-color="#87DBFF"/>
<stop offset="0.195" stop-color="#4ECAFF"/>
<stop offset="0.555" stop-color="#00B3FF"/>
<stop offset="1" stop-color="#224180"/>
</radialGradient>
<clipPath id="clip0_195_544">
<rect width="37" height="39" fill="white"/>
</clipPath>
</defs>
</svg>
