<svg width="200" height="57" viewBox="0 0 200 57" fill="none" xmlns="http://www.w3.org/2000/svg">
<g clip-path="url(#clip0_1168_161)">
<path d="M33.9062 16.044C33.5052 15.351 33.8332 14.783 34.6342 14.783H46.1962C46.9972 14.783 47.3252 15.351 46.9242 16.044L41.1442 26.058C40.7432 26.751 40.0882 26.751 39.6882 26.058L33.9062 16.044ZM26.5082 27.832H38.0702C38.8712 27.832 39.1992 27.264 38.7982 26.571L33.0162 16.557C32.6162 15.864 31.9612 15.864 31.5602 16.557L25.7802 26.572C25.3802 27.265 25.7072 27.832 26.5082 27.832ZM38.0702 28.86H26.5082C25.7072 28.86 25.3802 29.428 25.7802 30.121L31.5612 40.135C31.9622 40.828 32.6172 40.828 33.0172 40.135L38.7992 30.121C39.1992 29.428 38.8722 28.86 38.0702 28.86ZM41.1442 30.634C40.7432 29.941 40.0882 29.941 39.6882 30.634L33.9062 40.648C33.5052 41.341 33.8332 41.909 34.6342 41.909H46.1962C46.9972 41.909 47.3252 41.342 46.9242 40.648L41.1442 30.634ZM55.3182 27.032L49.2922 16.595C48.8752 15.872 48.1922 15.872 47.7742 16.595L41.7482 27.032C41.3312 27.754 41.3312 28.937 41.7482 29.66L47.7742 40.097C48.1922 40.82 48.8742 40.82 49.2922 40.097L55.3182 29.66C55.7362 28.938 55.7362 27.755 55.3182 27.032ZM5.95219 25.351C6.35319 26.045 7.00819 26.045 7.40819 25.351L13.1892 15.337C13.5892 14.644 13.2622 14.076 12.4612 14.076L0.899187 14.077C0.098187 14.077 -0.229813 14.644 0.171187 15.338L5.95219 25.351ZM9.02619 27.126L20.5892 27.125C21.3902 27.125 21.7172 26.558 21.3172 25.864L15.5362 15.851C15.1352 15.157 14.4802 15.157 14.0802 15.851L8.29819 25.865C7.89719 26.558 8.22519 27.125 9.02619 27.126ZM28.7162 14.076H17.1532C16.3522 14.076 16.0252 14.643 16.4252 15.337L22.2062 25.35C22.6072 26.044 23.2622 26.043 23.6622 25.35L29.4442 15.337C29.8442 14.643 29.5172 14.076 28.7162 14.076ZM17.1532 13.049H28.7162C29.5172 13.049 29.8442 12.482 29.4442 11.788L23.6632 1.775C23.2622 1.081 22.6072 1.081 22.2072 1.775L16.4252 11.788C16.0252 12.481 16.3522 13.049 17.1532 13.049ZM0.951187 13.065H13.0022C13.8362 13.065 14.8612 12.474 15.2782 11.751L21.3032 1.314C21.7212 0.591 21.3802 0 20.5452 0H8.49419C7.65919 0 6.63519 0.591 6.21819 1.314L0.193187 11.751C-0.223813 12.474 0.117187 13.065 0.951187 13.065ZM28.7162 43.644H17.1532C16.3522 43.644 16.0252 44.211 16.4252 44.905L22.2072 54.918C22.6072 55.612 23.2622 55.612 23.6632 54.918L29.4442 44.905C29.8442 44.211 29.5172 43.644 28.7162 43.644ZM17.1532 42.617H28.7162C29.5172 42.617 29.8442 42.05 29.4442 41.356L23.6622 31.343C23.2622 30.65 22.6072 30.649 22.2062 31.343L16.4252 41.356C16.0242 42.05 16.3522 42.617 17.1532 42.617ZM8.29819 30.828L14.0792 40.842C14.4792 41.536 15.1342 41.536 15.5352 40.842L21.3162 30.829C21.7172 30.135 21.3892 29.568 20.5882 29.568L9.02619 29.567C8.22519 29.568 7.89719 30.135 8.29819 30.828ZM0.899187 42.616L12.4612 42.617C13.2622 42.617 13.5892 42.049 13.1892 41.356L7.40819 31.342C7.00819 30.648 6.35319 30.648 5.95219 31.342L0.171187 41.355C-0.229813 42.049 0.098187 42.616 0.899187 42.616ZM15.2792 44.942C14.8622 44.219 13.8382 43.628 13.0032 43.628H0.952187C0.117187 43.628 -0.223813 44.219 0.193187 44.942L6.21819 55.379C6.63519 56.102 7.66019 56.693 8.49419 56.693H20.5452C21.3792 56.693 21.7212 56.102 21.3042 55.379L15.2792 44.942Z" fill="url(#paint0_radial_1168_161)"/>
<path d="M183.27 16.3457L176.939 33.6137H172.737L166.373 16.3457H170.914L174.838 27.8397L178.729 16.3457H183.27Z" fill="#186DAC"/>
<path d="M164.082 16.3457H159.363V33.6137H164.082V16.3457Z" fill="#186DAC"/>
<path d="M163.684 10.0156H159.729C159.49 10.0156 159.297 10.2096 159.297 10.4476V13.5076C159.297 13.7466 159.491 13.9396 159.729 13.9396H163.684C163.923 13.9396 164.116 13.7456 164.116 13.5076V10.4476C164.117 10.2086 163.923 10.0156 163.684 10.0156Z" fill="#186DAC"/>
<path d="M155.438 33.6136H150.831V23.7366H141.712V33.6136H137.105V10.0156H141.712V19.6606H150.831V10.0156H155.438V33.6136Z" fill="#186DAC"/>
<path d="M199.466 26.3224C199.148 26.3224 188.303 26.3224 188.303 26.3224C188.303 28.5434 189.662 30.1674 192.081 30.1674C193.752 30.1674 194.499 29.6304 195.41 28.4924L199.349 28.9334C199.203 29.7534 198.349 31.0304 197.332 31.8784C196.141 32.8714 194.559 33.8134 192.047 33.8134C187.97 33.8134 184.059 31.5484 184.059 24.9644C184.059 18.9534 187.519 16.1484 191.994 16.1484C196.8 16.1484 199.928 19.7314 199.928 24.8124C199.928 25.3024 199.914 25.6694 199.899 25.9194C199.884 26.1894 199.783 26.3224 199.466 26.3224ZM195.686 23.3724C195.653 22.6104 195.517 21.9234 195.115 21.2794C194.696 20.6074 193.717 19.7264 191.994 19.7264C190.462 19.7264 189.442 20.4554 188.964 21.1314C188.494 21.7954 188.335 22.6104 188.302 23.3724H195.686Z" fill="#186DAC"/>
<path d="M133.046 26.3224C132.728 26.3224 121.883 26.3224 121.883 26.3224C121.883 28.5434 123.242 30.1674 125.661 30.1674C127.332 30.1674 128.079 29.6304 128.99 28.4924L132.929 28.9334C132.783 29.7534 131.929 31.0304 130.912 31.8784C129.721 32.8714 128.139 33.8134 125.627 33.8134C121.55 33.8134 117.639 31.5484 117.639 24.9644C117.639 18.9534 121.099 16.1484 125.574 16.1484C130.38 16.1484 133.508 19.7314 133.508 24.8124C133.508 25.3024 133.494 25.6694 133.479 25.9194C133.465 26.1894 133.364 26.3224 133.046 26.3224ZM129.267 23.3724C129.234 22.6104 129.098 21.9234 128.696 21.2794C128.277 20.6074 127.298 19.7264 125.575 19.7264C124.043 19.7264 123.023 20.4554 122.545 21.1314C122.075 21.7954 121.916 22.6104 121.883 23.3724H129.267Z" fill="#186DAC"/>
<path d="M114.333 33.6137H110.534L110.123 31.6117C109.401 32.8487 107.405 33.8127 105.814 33.8127C104.09 33.8127 102.698 33.2487 101.737 32.2877C100.345 30.8957 99.9805 29.2717 99.9805 27.3827V16.3457H104.289V27.1967C104.289 29.5497 105.78 30.3457 107.139 30.3457C108.498 30.3457 110.023 29.5507 110.023 27.1967V16.3457H114.332L114.333 33.6137Z" fill="#186DAC"/>
<path d="M97.8495 33.6136H95.5045C91.9575 33.6136 90.7695 31.5186 90.7695 29.0656V10.0156H95.0785V28.6776C95.0785 29.7046 95.5095 29.9686 96.6035 29.9686H98.2605L97.8495 33.6136Z" fill="#186DAC"/>
<path d="M87.7421 26.8196C87.7421 31.2276 84.7261 33.6146 80.5161 33.6146H68.9961V10.0156H79.2971C83.9041 10.0156 86.5891 12.6006 86.5891 16.6446C86.5891 18.9316 85.0681 20.5846 84.0711 21.3076C84.2711 21.4046 84.4941 21.5166 84.4941 21.5166C85.9191 22.1796 87.7421 23.6706 87.7421 26.8196ZM83.1351 26.5876C83.1351 24.9966 82.1411 23.7036 80.0521 23.7036H73.6041V29.5036H80.0521C82.1411 29.5036 83.1351 28.1786 83.1351 26.5876ZM81.9821 16.8426C81.9821 15.2186 80.8881 14.1246 78.9331 14.1246H73.6041V19.5606H78.9331C80.8891 19.5606 81.9821 18.4666 81.9821 16.8426Z" fill="#186DAC"/>
<path d="M68.9961 48.7457V39.5107H71.9701C72.9571 39.5107 73.7911 39.6857 74.4721 40.0347C75.1531 40.3837 75.6731 40.9017 76.0311 41.5867C76.3891 42.2727 76.5681 43.1177 76.5681 44.1217C76.5681 45.1257 76.3891 45.9707 76.0311 46.6567C75.6731 47.3427 75.1541 47.8617 74.4721 48.2157C73.7911 48.5697 72.9571 48.7457 71.9701 48.7457H68.9961ZM69.7951 48.0387H71.9041C73.1701 48.0387 74.1201 47.7107 74.7531 47.0557C75.3861 46.4007 75.7031 45.4227 75.7031 44.1217C75.7031 42.8207 75.3861 41.8447 74.7531 41.1947C74.1191 40.5437 73.1701 40.2187 71.9041 40.2187H69.7951V48.0387Z" fill="#186DAC"/>
<path d="M78.3086 40.716V39.707H79.3826V40.716H78.3086ZM78.4406 48.746V42.393H79.2396V48.746H78.4406Z" fill="#186DAC"/>
<path d="M84.1131 51.2094C83.5711 51.2094 83.0671 51.1354 82.6001 50.9864C82.1331 50.8384 81.7161 50.6194 81.3491 50.3314L81.6501 49.7294C81.9201 49.9214 82.1831 50.0784 82.4361 50.2004C82.6891 50.3224 82.9491 50.4104 83.2151 50.4624C83.4821 50.5144 83.7721 50.5404 84.0861 50.5404C84.7231 50.5404 85.2081 50.3634 85.5401 50.0104C85.8721 49.6574 86.0381 49.1524 86.0381 48.4974V46.8734H86.1691C86.0381 47.4144 85.7581 47.8384 85.3311 48.1444C84.9031 48.4504 84.3971 48.6024 83.8111 48.6024C83.2251 48.6024 82.7191 48.4694 82.2911 48.2034C81.8631 47.9364 81.5331 47.5664 81.3021 47.0894C81.0711 46.6134 80.9551 46.0614 80.9551 45.4324C80.9551 44.8034 81.0711 44.2534 81.3021 43.7824C81.5331 43.3114 81.8631 42.9424 82.2911 42.6754C82.7191 42.4084 83.2251 42.2754 83.8111 42.2754C84.3971 42.2754 84.9031 42.4304 85.3311 42.7404C85.7591 43.0504 86.0341 43.4674 86.1561 43.9914H86.0251V42.3934H86.8111V48.3804C86.8111 49.0004 86.7101 49.5224 86.5101 49.9454C86.3091 50.3694 86.0081 50.6854 85.6061 50.8954C85.2041 51.1054 84.7071 51.2094 84.1131 51.2094ZM83.9031 47.9214C84.5581 47.9214 85.0771 47.6964 85.4611 47.2464C85.8461 46.7964 86.0381 46.1914 86.0381 45.4324C86.0381 44.6724 85.8461 44.0704 85.4611 43.6254C85.0771 43.1804 84.5571 42.9574 83.9031 42.9574C83.2481 42.9574 82.7281 43.1804 82.3441 43.6254C81.9591 44.0704 81.7671 44.6734 81.7671 45.4324C81.7671 46.1924 81.9591 46.7974 82.3441 47.2464C82.7281 47.6964 83.2481 47.9214 83.9031 47.9214Z" fill="#186DAC"/>
<path d="M88.7891 40.716V39.707H89.8631V40.716H88.7891ZM88.9201 48.746V42.393H89.7191V48.746H88.9201Z" fill="#186DAC"/>
<path d="M94.2247 48.8517C93.5177 48.8517 92.9867 48.6597 92.6337 48.2757C92.2807 47.8917 92.1037 47.3417 92.1037 46.6257V43.0367H90.8457V42.3947H92.1037V40.4297H92.9027V42.3947H94.9587V43.0367H92.9027V46.5207C92.9027 47.0537 93.0117 47.4597 93.2297 47.7387C93.4477 48.0187 93.8107 48.1577 94.3167 48.1577C94.4647 48.1577 94.6087 48.1377 94.7487 48.0987C94.8877 48.0597 95.0107 48.0217 95.1157 47.9867L95.2727 48.6157C95.1767 48.6767 95.0237 48.7317 94.8137 48.7797C94.6047 48.8277 94.4077 48.8517 94.2247 48.8517Z" fill="#186DAC"/>
<path d="M98.1805 48.8514C97.7525 48.8514 97.3705 48.7684 97.0335 48.6024C96.6975 48.4364 96.4315 48.2094 96.2345 47.9214C96.0375 47.6334 95.9395 47.3104 95.9395 46.9524C95.9395 46.4814 96.0574 46.1094 96.2924 45.8394C96.5284 45.5684 96.9255 45.3784 97.4845 45.2694C98.0435 45.1604 98.8115 45.1054 99.7895 45.1054H100.352V45.6954H99.8025C99.2175 45.6954 98.7265 45.7134 98.3285 45.7474C97.9315 45.7824 97.6184 45.8454 97.3914 45.9374C97.1644 46.0294 97.0055 46.1534 96.9135 46.3104C96.8215 46.4674 96.7755 46.6604 96.7755 46.8864C96.7755 47.2794 96.9114 47.5984 97.1814 47.8424C97.4514 48.0874 97.8184 48.2094 98.2814 48.2094C98.6564 48.2094 98.9865 48.1204 99.2705 47.9404C99.5545 47.7614 99.7785 47.5144 99.9445 47.2004C100.11 46.8864 100.193 46.5274 100.193 46.1264V44.6334C100.193 44.0484 100.075 43.6234 99.8405 43.3564C99.6045 43.0894 99.2284 42.9564 98.7134 42.9564C98.3294 42.9564 97.9605 43.0134 97.6065 43.1264C97.2525 43.2404 96.8875 43.4194 96.5125 43.6634L96.1984 43.0474C96.4254 42.8904 96.6765 42.7554 96.9515 42.6414C97.2265 42.5284 97.5145 42.4384 97.8165 42.3724C98.1175 42.3074 98.4125 42.2744 98.7005 42.2744C99.2155 42.2744 99.6414 42.3614 99.9774 42.5364C100.313 42.7114 100.562 42.9734 100.724 43.3224C100.886 43.6724 100.967 44.1214 100.967 44.6714V48.7454H100.207V47.2134H100.338C100.259 47.5544 100.12 47.8464 99.9194 48.0904C99.7184 48.3354 99.4695 48.5234 99.1725 48.6534C98.8795 48.7854 98.5475 48.8514 98.1805 48.8514Z" fill="#186DAC"/>
<path d="M104.9 48.8507C104.306 48.8507 103.85 48.6677 103.531 48.3007C103.212 47.9337 103.053 47.4147 103.053 46.7417V39.5107H103.852V46.6497C103.852 46.9817 103.898 47.2587 103.99 47.4817C104.082 47.7047 104.215 47.8727 104.39 47.9857C104.565 48.0997 104.778 48.1557 105.032 48.1557C105.145 48.1557 105.253 48.1497 105.353 48.1357C105.453 48.1227 105.547 48.1027 105.634 48.0767L105.608 48.7707C105.477 48.7977 105.354 48.8167 105.241 48.8297C105.128 48.8437 105.014 48.8507 104.9 48.8507Z" fill="#186DAC"/>
<path d="M113.114 48.8512C112.634 48.8512 112.186 48.8102 111.771 48.7272C111.356 48.6442 110.976 48.5172 110.631 48.3472C110.286 48.1772 109.974 47.9742 109.695 47.7382L110.009 47.0702C110.314 47.3062 110.618 47.5022 110.919 47.6602C111.22 47.8172 111.552 47.9332 111.914 48.0072C112.276 48.0812 112.676 48.1182 113.113 48.1182C113.943 48.1182 114.565 47.9572 114.979 47.6342C115.394 47.3112 115.601 46.8872 115.601 46.3632C115.601 46.0752 115.536 45.8302 115.405 45.6302C115.274 45.4292 115.067 45.2572 114.783 45.1122C114.499 44.9682 114.125 44.8522 113.663 44.7652L112.34 44.4902C111.51 44.3242 110.894 44.0452 110.493 43.6522C110.092 43.2592 109.891 42.7352 109.891 42.0802C109.891 41.5392 110.028 41.0672 110.303 40.6652C110.578 40.2642 110.963 39.9542 111.456 39.7352C111.949 39.5172 112.511 39.4082 113.139 39.4082C113.558 39.4082 113.953 39.4492 114.324 39.5322C114.695 39.6152 115.038 39.7442 115.352 39.9182C115.666 40.0932 115.946 40.3072 116.19 40.5602L115.876 41.2152C115.474 40.8402 115.055 40.5672 114.618 40.3972C114.181 40.2272 113.688 40.1422 113.138 40.1422C112.649 40.1422 112.223 40.2202 111.861 40.3782C111.499 40.5352 111.217 40.7582 111.016 41.0462C110.815 41.3342 110.715 41.6752 110.715 42.0682C110.715 42.5222 110.854 42.8852 111.134 43.1552C111.413 43.4262 111.863 43.6232 112.483 43.7452L113.819 44.0202C114.701 44.2042 115.356 44.4762 115.784 44.8392C116.212 45.2012 116.426 45.6972 116.426 46.3262C116.426 46.8242 116.293 47.2632 116.026 47.6432C115.759 48.0232 115.377 48.3202 114.88 48.5342C114.384 48.7442 113.795 48.8512 113.114 48.8512Z" fill="#186DAC"/>
<path d="M120.554 48.8514C119.96 48.8514 119.445 48.7164 119.008 48.4454C118.571 48.1744 118.233 47.7944 117.993 47.3054C117.753 46.8164 117.633 46.2364 117.633 45.5634C117.633 44.8994 117.753 44.3214 117.993 43.8274C118.233 43.3344 118.571 42.9524 119.008 42.6814C119.445 42.4104 119.96 42.2754 120.554 42.2754C121.157 42.2754 121.676 42.4104 122.113 42.6814C122.55 42.9524 122.888 43.3344 123.128 43.8274C123.368 44.3214 123.488 44.8994 123.488 45.5634C123.488 46.2274 123.368 46.8064 123.128 47.2994C122.888 47.7924 122.55 48.1744 122.113 48.4454C121.676 48.7164 121.157 48.8514 120.554 48.8514ZM120.567 48.1834C121.213 48.1834 121.726 47.9564 122.106 47.5024C122.486 47.0484 122.676 46.4024 122.676 45.5634C122.676 44.7334 122.486 44.0924 122.106 43.6374C121.726 43.1834 121.213 42.9564 120.567 42.9564C119.921 42.9564 119.406 43.1834 119.021 43.6374C118.636 44.0914 118.444 44.7334 118.444 45.5634C118.444 46.4014 118.636 47.0484 119.021 47.5024C119.406 47.9564 119.921 48.1834 120.567 48.1834Z" fill="#186DAC"/>
<path d="M127.038 48.8507C126.444 48.8507 125.988 48.6677 125.669 48.3007C125.35 47.9337 125.191 47.4147 125.191 46.7417V39.5107H125.99V46.6497C125.99 46.9817 126.036 47.2587 126.128 47.4817C126.22 47.7047 126.353 47.8727 126.528 47.9857C126.703 48.0997 126.916 48.1557 127.17 48.1557C127.283 48.1557 127.391 48.1497 127.491 48.1357C127.591 48.1227 127.685 48.1027 127.772 48.0767L127.746 48.7707C127.615 48.7977 127.492 48.8167 127.379 48.8297C127.265 48.8437 127.152 48.8507 127.038 48.8507Z" fill="#186DAC"/>
<path d="M131.164 48.8516C130.657 48.8516 130.236 48.7596 129.9 48.5766C129.564 48.3926 129.313 48.1176 129.147 47.7516C128.981 47.3846 128.898 46.9306 128.898 46.3896V42.3936H129.697V46.3496C129.697 46.7596 129.752 47.1006 129.861 47.3716C129.97 47.6426 130.142 47.8426 130.379 47.9746C130.615 48.1056 130.911 48.1706 131.27 48.1706C131.663 48.1706 132.008 48.0816 132.305 47.9016C132.601 47.7226 132.835 47.4716 133.006 47.1486C133.176 46.8256 133.261 46.4456 133.261 46.0086V42.3926H134.06V48.7456H133.287V47.2136H133.444C133.278 47.7466 132.99 48.1526 132.579 48.4316C132.168 48.7116 131.697 48.8516 131.164 48.8516Z" fill="#186DAC"/>
<path d="M138.565 48.8517C137.858 48.8517 137.327 48.6597 136.974 48.2757C136.621 47.8917 136.444 47.3417 136.444 46.6257V43.0367H135.186V42.3947H136.444V40.4297H137.243V42.3947H139.299V43.0367H137.243V46.5207C137.243 47.0537 137.352 47.4597 137.57 47.7387C137.788 48.0187 138.151 48.1577 138.657 48.1577C138.805 48.1577 138.949 48.1377 139.089 48.0987C139.228 48.0597 139.351 48.0217 139.456 47.9867L139.613 48.6157C139.517 48.6767 139.364 48.7317 139.154 48.7797C138.945 48.8277 138.749 48.8517 138.565 48.8517Z" fill="#186DAC"/>
<path d="M140.426 40.716V39.707H141.5V40.716H140.426ZM140.558 48.746V42.393H141.357V48.746H140.558Z" fill="#186DAC"/>
<path d="M145.991 48.8514C145.397 48.8514 144.882 48.7164 144.445 48.4454C144.008 48.1744 143.67 47.7944 143.43 47.3054C143.19 46.8164 143.07 46.2364 143.07 45.5634C143.07 44.8994 143.19 44.3214 143.43 43.8274C143.67 43.3344 144.008 42.9524 144.445 42.6814C144.882 42.4104 145.397 42.2754 145.991 42.2754C146.594 42.2754 147.113 42.4104 147.55 42.6814C147.987 42.9524 148.325 43.3344 148.565 43.8274C148.805 44.3214 148.925 44.8994 148.925 45.5634C148.925 46.2274 148.805 46.8064 148.565 47.2994C148.325 47.7924 147.987 48.1744 147.55 48.4454C147.113 48.7164 146.594 48.8514 145.991 48.8514ZM146.005 48.1834C146.651 48.1834 147.164 47.9564 147.544 47.5024C147.924 47.0484 148.114 46.4024 148.114 45.5634C148.114 44.7334 147.924 44.0924 147.544 43.6374C147.164 43.1834 146.651 42.9564 146.005 42.9564C145.359 42.9564 144.844 43.1834 144.459 43.6374C144.074 44.0914 143.882 44.7334 143.882 45.5634C143.882 46.4014 144.074 47.0484 144.459 47.5024C144.843 47.9564 145.358 48.1834 146.005 48.1834Z" fill="#186DAC"/>
<path d="M150.631 48.7464V42.3934H151.417V43.8734H151.273C151.448 43.3494 151.747 42.9524 152.171 42.6814C152.594 42.4104 153.081 42.2754 153.632 42.2754C154.138 42.2754 154.56 42.3644 154.896 42.5434C155.232 42.7224 155.483 42.9954 155.649 43.3624C155.815 43.7294 155.898 44.1874 155.898 44.7374V48.7454H155.099V44.8024C155.099 44.3834 155.044 44.0384 154.935 43.7674C154.826 43.4974 154.654 43.2964 154.418 43.1654C154.182 43.0344 153.881 42.9694 153.514 42.9694C153.095 42.9694 152.728 43.0564 152.414 43.2314C152.1 43.4064 151.857 43.6554 151.687 43.9784C151.517 44.3014 151.431 44.6814 151.431 45.1184V48.7474H150.631V48.7464Z" fill="#186DAC"/>
<path d="M160.034 48.8513C159.72 48.8513 159.412 48.8203 159.11 48.7593C158.809 48.6983 158.529 48.6063 158.272 48.4843C158.014 48.3623 157.794 48.2133 157.611 48.0393L157.899 47.4493C158.117 47.6243 158.344 47.7663 158.58 47.8753C158.816 47.9843 159.058 48.0653 159.307 48.1173C159.556 48.1703 159.807 48.1963 160.06 48.1963C160.593 48.1963 160.999 48.0963 161.278 47.8953C161.557 47.6943 161.697 47.4243 161.697 47.0833C161.697 46.8043 161.608 46.5883 161.429 46.4353C161.25 46.2823 160.959 46.1583 160.558 46.0623L159.419 45.8003C158.868 45.6783 158.462 45.4793 158.201 45.2043C157.939 44.9293 157.808 44.5733 157.808 44.1373C157.808 43.7613 157.906 43.4343 158.103 43.1543C158.299 42.8753 158.579 42.6593 158.941 42.5063C159.303 42.3533 159.72 42.2773 160.192 42.2773C160.48 42.2773 160.76 42.3103 161.03 42.3753C161.3 42.4403 161.549 42.5353 161.777 42.6573C162.004 42.7793 162.201 42.9323 162.367 43.1153L162.053 43.7053C161.887 43.5393 161.701 43.4003 161.496 43.2863C161.291 43.1723 161.079 43.0873 160.861 43.0303C160.642 42.9743 160.416 42.9453 160.18 42.9453C159.673 42.9453 159.283 43.0503 159.008 43.2593C158.733 43.4693 158.595 43.7533 158.595 44.1113C158.595 44.3823 158.68 44.6003 158.851 44.7663C159.021 44.9323 159.289 45.0593 159.657 45.1463L160.797 45.4083C161.364 45.5393 161.788 45.7343 162.068 45.9913C162.347 46.2493 162.487 46.5953 162.487 47.0323C162.487 47.4083 162.386 47.7333 162.185 48.0083C161.984 48.2833 161.7 48.4933 161.334 48.6373C160.964 48.7793 160.532 48.8513 160.034 48.8513Z" fill="#186DAC"/>
</g>
<defs>
<radialGradient id="paint0_radial_1168_161" cx="0" cy="0" r="1" gradientUnits="userSpaceOnUse" gradientTransform="translate(23.4089 28.3465) scale(32.4633 32.4633)">
<stop stop-color="#87DBFF"/>
<stop offset="0.195" stop-color="#4ECAFF"/>
<stop offset="0.555" stop-color="#00B3FF"/>
<stop offset="1" stop-color="#224180"/>
</radialGradient>
<clipPath id="clip0_1168_161">
<rect width="199.928" height="56.693" fill="white"/>
</clipPath>
</defs>
</svg>
