<svg width="52" height="41" viewBox="0 0 52 41" fill="none" xmlns="http://www.w3.org/2000/svg">
<path d="M3.79975 25.7234C3.83919 29.0759 6.11378 32.2189 9.72946 32.2189C12.6351 32.2189 14.1997 30.7522 15.6197 28.4081L18.8147 30.2153C16.9608 33.6071 13.5029 35.5845 9.67686 35.5845C3.65512 35.5845 0 31.0534 0 25.2651C0 19.2279 3.24753 14.6968 9.59798 14.6968C15.8695 14.6968 18.8147 19.3065 18.8147 25.1341V25.7234H3.79975ZM15.0412 22.8685C14.581 19.9351 12.6351 17.9576 9.61112 17.9576C6.66599 17.9576 4.47029 20.0529 4.01011 22.8685H15.0412Z" fill="#06519F"/>
<path d="M33.961 3.49969C33.8689 5.3462 32.2912 6.76054 30.4505 6.68197C28.7281 6.60339 27.3476 5.22833 27.2555 3.49969C27.1635 1.65319 28.5966 0.0816959 30.4505 0.00312124C32.3043 -0.0754534 33.8821 1.33889 33.961 3.18539C33.961 3.27707 33.961 3.39493 33.961 3.49969ZM33.0406 40.2726H28.1759V15.0371H33.0538L33.0406 40.2726Z" fill="#B2C889"/>
<path d="M41.5079 6.06612C41.7446 3.73507 43.2434 2.16357 45.6758 2.16357C48.0161 2.16357 49.5939 3.65649 49.5939 5.98754C49.5939 7.0352 49.2126 8.20073 48.2922 8.80313C49.5413 9.34006 50.0409 10.8723 50.0409 12.1164C50.0409 14.7748 48.1082 16.4249 45.518 16.4249C43.0331 16.4249 41.1529 14.5784 41.0083 12.1426H43.6773C43.7299 13.2164 44.4531 14.12 45.6232 14.12C46.7934 14.12 47.4508 13.0069 47.4508 11.9461C47.4508 10.8854 46.7276 9.70674 45.5443 9.78531L45.0579 9.8246V7.93881H45.3471C46.491 7.93881 47.0826 7.20545 47.0826 6.06612C47.0826 5.16251 46.5173 4.33747 45.5312 4.33747C44.5977 4.33747 44.0849 5.21489 44.0455 6.03992L41.5079 6.06612Z" fill="#211E1F"/>
<path d="M46.2807 35.5318C49.4394 35.5318 52.0001 35.0628 52.0001 34.4842C52.0001 33.9056 49.4394 33.4365 46.2807 33.4365C43.122 33.4365 40.5614 33.9056 40.5614 34.4842C40.5614 35.0628 43.122 35.5318 46.2807 35.5318Z" fill="#BCBDBF"/>
</svg>
