<svg width="32" height="32" viewBox="0 0 37 39" fill="none" xmlns="http://www.w3.org/2000/svg">
<g clip-path="url(#clip0_195_544)">
<mask id="mask0_195_544" style="mask-type:luminance" maskUnits="userSpaceOnUse" x="0" y="0" width="37" height="39">
<path d="M36.6208 0H0V38.1205H36.6208V0Z" fill="white"/>
</mask>
<g mask="url(#mask0_195_544)">
<path d="M17.6881 18.5425H24.9071C25.4079 18.5425 25.6114 18.1821 25.3617 17.741L21.7515 11.3772C21.5018 10.9361 21.0921 10.9361 20.8424 11.3772L17.2335 17.7396C16.9838 18.1807 17.1873 18.5425 17.6881 18.5425ZM23.0861 10.0607H30.3051C30.8059 10.0607 31.0094 10.4211 30.7597 10.8622L27.1495 17.2246C26.8998 17.6657 26.4901 17.6657 26.2404 17.2246L22.6316 10.8622C22.3818 10.4211 22.5866 10.0607 23.0861 10.0607ZM23.0861 28.0625H30.3051C30.8059 28.0625 31.0094 27.7021 30.7597 27.261L27.1495 20.8986C26.8998 20.4575 26.4901 20.4575 26.2404 20.8986L22.6316 27.261C22.3818 27.7021 22.5866 28.0625 23.0861 28.0625ZM17.6881 19.5793H24.9071C25.4079 19.5793 25.6114 19.9398 25.3617 20.3809L21.7515 26.7432C21.5018 27.1843 21.0921 27.1843 20.8424 26.7432L17.2335 20.3809C16.9838 19.9398 17.1873 19.5793 17.6881 19.5793ZM36.422 18.209L32.5819 11.4391C32.3163 10.9698 31.8816 10.9698 31.6147 11.4391L27.7746 18.209C27.509 18.677 27.509 19.4449 27.7746 19.9142L31.6147 26.6841C31.8803 27.1534 32.3163 27.1534 32.5819 26.6841L36.422 19.9142C36.6889 19.4449 36.6889 18.677 36.422 18.209ZM13.6353 17.1977L10.0251 10.8353C9.77539 10.3942 9.36574 10.3942 9.11599 10.8353L5.50585 17.199C5.2561 17.6401 5.46092 18.0005 5.96042 18.0005H13.1794C13.6802 17.9992 13.885 17.6388 13.6353 17.1977ZM3.71796 16.6799L0.109137 10.3175C-0.140613 9.87641 0.0642085 9.516 0.563708 9.516H7.78267C8.28217 9.516 8.48699 9.87641 8.23724 10.3175L4.6271 16.6799C4.37735 17.121 3.96771 17.121 3.71796 16.6799ZM19.0373 7.67897L15.4271 1.31659C15.1774 0.875483 14.7678 0.875483 14.518 1.31659L10.9092 7.67897C10.6594 8.12007 10.8642 8.48048 11.3637 8.48048H18.5827C19.0822 8.48048 19.287 8.12007 19.0373 7.67897ZM14.518 16.6786L10.9079 10.3162C10.6581 9.87507 10.8629 9.51465 11.3624 9.51465H18.5814C19.0809 9.51465 19.2857 9.87507 19.036 10.3162L15.4258 16.6786C15.1761 17.1197 14.7678 17.1197 14.518 16.6786ZM3.98357 0.852621L0.143494 7.62248C-0.122113 8.09183 0.0946014 8.4751 0.627137 8.4751H8.30728C8.83849 8.4751 9.4926 8.09183 9.75821 7.62248L13.5983 0.852621C13.8652 0.383276 13.6472 0 13.116 0H5.43449C4.90328 0 4.24917 0.383276 3.98357 0.852621ZM14.518 21.4433L10.9079 27.8057C10.6581 28.2468 10.8629 28.6072 11.3624 28.6072H18.5814C19.0809 28.6072 19.2857 28.2468 19.036 27.8057L15.4258 21.4433C15.1774 21.0022 14.7678 21.0022 14.518 21.4433ZM19.036 30.4415L15.4258 36.8039C15.1761 37.245 14.7664 37.245 14.5167 36.8039L10.9065 30.4402C10.6581 30.0004 10.8629 29.64 11.3624 29.64H18.5814C19.0809 29.64 19.2857 30.0004 19.036 30.4415ZM3.71664 21.4406L0.106494 27.803C-0.143256 28.2441 0.0615656 28.6045 0.561065 28.6045H7.78003C8.27953 28.6045 8.48435 28.2441 8.2346 27.803L4.62578 21.4406C4.37603 20.9995 3.96771 20.9995 3.71664 21.4406ZM13.6353 20.9242L10.0265 27.2866C9.77671 27.7277 9.36707 27.7277 9.11732 27.2866L5.50717 20.9228C5.25742 20.4817 5.46224 20.1213 5.96174 20.1213H13.1807C13.6815 20.1227 13.885 20.4831 13.6353 20.9242ZM5.43449 38.1205H13.1146C13.6459 38.1205 13.8639 37.7372 13.5983 37.2679L9.75821 30.498C9.4926 30.0287 8.83982 29.6454 8.30728 29.6454H0.627137C0.0946014 29.6454 -0.122113 30.0287 0.143494 30.498L3.98357 37.2679C4.24917 37.7372 4.90196 38.1218 5.43449 38.1205Z" fill="url(#paint0_radial_195_544)"/>
</g>
</g>
<defs>
<radialGradient id="paint0_radial_195_544" cx="0" cy="0" r="1" gradientTransform="matrix(-10.7028 18.8645 -18.5362 -10.8923 15.2449 19.0134)" gradientUnits="userSpaceOnUse">
<stop stop-color="#87DBFF"/>
<stop offset="0.195" stop-color="#4ECAFF"/>
<stop offset="0.555" stop-color="#00B3FF"/>
<stop offset="1" stop-color="#224180"/>
</radialGradient>
<clipPath id="clip0_195_544">
<rect width="37" height="39" fill="white"/>
</clipPath>
</defs>
</svg>

